#!OML:ASF E:\Steps\Project 1\Capture day 1\Session 2\Subject.ASF
:FULLY-SPECIFIED
:DEGREES
554
root 10.154 16.3897 2.46333 -158.359 -1.19058 176.336
lowerback -17.6481 -0.2362 -6.95869
upperback 3.98218 1.41785 -1.40694
thorax 14.3956 0.0950071 2.77087
lowerneck -4.4196 -1.31606 -0.977565
upperneck 23.1677 -4.12262 2.64829
head 7.93704 -2.43652 0.621157
rclavicle 0 4.96962e-015
rhumerus -30.1083 -7.3295 -84.0191
rradius 46.0427
rwrist -5.51386
rhand -7.45025 -52.1651
rfingers 7.12502
rthumb 18.4377 638.689
lclavicle 0 4.96962e-015
lhumerus -36.4858 6.4603 76.9437
lradius 29.7083
lwrist -2.70085
lhand -20.2182 -13.1616
lfingers 7.12502
lthumb 6.12918 16.7297
rfemur -19.1096 7.71606 19.9486
rtibia 13.6769
rfoot -22.5698 -6.74569
rtoes -29.7853
lfemur -80.6821 -4.16474 -20.8976
ltibia 70.0033
lfoot -7.69605 1.11029
ltoes -32.3252
555
root 10.1422 16.3866 2.38072 -158.244 -1.16458 176.279
lowerback -17.6569 -0.246489 -7.09004
upperback 3.96545 1.4379 -1.46639
thorax 14.3792 0.0952978 2.7832
lowerneck -4.63207 -1.39612 -0.930594
upperneck 23.085 -4.19242 2.61074
head 7.94781 -2.455 0.593638
rclavicle 1.00386e-014 5.18828e-014
rhumerus -30.0303 -7.29264 -84.0839
rradius 45.9775
rwrist -5.26284
rhand -7.39468 -51.6973
rfingers 7.12502
rthumb 18.4912 639.162
lclavicle 1.00386e-014 5.18828e-014
lhumerus -36.503 6.69175 76.8327
lradius 29.7941
lwrist -2.6307
lhand -20.1602 -13.1916
lfingers 7.12502
lthumb 6.18516 16.6981
rfemur -19.0785 7.66517 19.8614
rtibia 14.0388
rfoot -22.8313 -6.71352
rtoes -29.3845
lfemur -80.2598 -4.202 -21.1009
ltibia 69.6914
lfoot -7.33511 1.07021
ltoes -34.67
556
root 10.1298 16.3828 2.29657 -158.053 -1.15371 176.274
lowerback -17.7933 -0.294061 -7.19912
upperback 3.87291 1.4075 -1.48526
thorax 14.3543 0.0750078 2.81657
lowerneck -4.75938 -1.44222 -0.672879
upperneck 23.3495 -4.2516 2.24747
head 8.04845 -2.49975 0.419541
rclavicle 2.16675e-014 1.49089e-014
rhumerus -30.1594 -7.20933 -84.1407
rradius 46.0457
rwrist -5.39406
rhand -7.17145 -52.2557
rfingers 7.12502
rthumb 18.7059 638.624
lclavicle 2.16675e-014 1.49089e-014
lhumerus -36.5493 7.13273 76.6238
lradius 29.5494
lwrist -2.9404
lhand -20.1735 -13.1682
lfingers 7.12502
lthumb 6.1723 16.7218
rfemur -18.6239 7.82977 19.807
rtibia 13.384
rfoot -22.5998 -6.7317
rtoes -28.5419
lfemur -79.9294 -4.19848 -21.2462
ltibia 69.4541
lfoot -6.80931 0.909651
ltoes -32.6328
557
root 10.1185 16.3788 2.21346 -157.772 -1.11483 176.392
lowerback -18.0528 -0.29217 -7.16508
upperback 3.74076 1.42093 -1.49933
thorax 14.3534 0.087518 2.78955
lowerneck -4.63555 -1.34108 -0.636745
upperneck 23.4653 -4.12092 2.13165
head 8.05933 -2.45553 0.385933
rclavicle -1.54058e-014 -1.74931e-014
rhumerus -30.4469 -7.1933 -84.191
rradius 46.0534
rwrist -5.50068
rhand -7.26677 -52.2196
rfingers 7.12502
rthumb 18.6142 638.651
lclavicle -1.54058e-014 -1.74931e-014
lhumerus -36.7611 7.29742 76.4126
lradius 29.4926
lwrist -3.0242
lhand -20.2543 -13.2545
lfingers 7.12502
lthumb 6.09434 16.6379
rfemur -18.637 7.96272 19.8825
rtibia 13.3552
rfoot -22.6357 -6.729
rtoes -28.9103
lfemur -79.6747 -4.10754 -21.2618
ltibia 69.249
lfoot -6.42219 0.788105
ltoes -34.3557
558
root 10.1078 16.3781 2.1316 -157.502 -1.13877 176.482
lowerback -18.1747 -0.2857 -7.14021
upperback 3.57579 1.42874 -1.54107
thorax 14.2312 0.102461 2.73278
lowerneck -4.42199 -1.19508 -0.819101
upperneck 23.3622 -3.95014 2.40031
head 7.99127 -2.37114 0.523983
rclavicle -4.57205e-015 1.90833e-014
rhumerus -30.8563 -7.09549 -84.2834
rradius 46.2061
rwrist -5.53294
rhand -7.33419 -52.5238
rfingers 7.12502
rthumb 18.5494 638.341
lclavicle -4.57205e-015 1.90833e-014
lhumerus -37.1203 7.42544 76.1279
lradius 29.5125
lwrist -3.15102
lhand -20.4029 -13.8575
lfingers 7.12502
lthumb 5.95088 16.0389
rfemur -18.7092 7.92062 19.9647
rtibia 13.4889
rfoot -22.6281 -6.7746
rtoes -29.7696
lfemur -79.3567 -4.07101 -21.3049
ltibia 69.0047
lfoot -6.4413 0.717872
ltoes -29.9937
559
root 10.0948 16.3759 2.05078 -157.115 -1.10849 176.602
lowerback -18.4042 -0.265788 -7.09079
upperback 3.47625 1.46462 -1.60461
thorax 14.2499 0.126348 2.64671
lowerneck -4.48621 -1.20358 -0.746702
upperneck 23.1256 -3.92969 2.47457
head 7.92349 -2.33467 0.540612
rclavicle -5.46658e-015 -2.62396e-014
rhumerus -30.8451 -7.01347 -84.4289
rradius 46.1535
rwrist -5.54879
rhand -7.42694 -53.1044
rfingers 7.12502
rthumb 18.4602 637.751
lclavicle -5.46658e-015 -2.62396e-014
lhumerus -37.1258 7.50179 75.9458
lradius 29.4335
lwrist -3.18078
lhand -20.9178 -14.3464
lfingers 7.12502
lthumb 5.45376 15.5635
rfemur -18.8393 7.59599 20.0952
rtibia 13.5654
rfoot -22.6218 -6.54299
rtoes -30.4115
lfemur -79.1614 -3.98225 -21.3346
ltibia 68.7744
lfoot -7.18678 0.412441
ltoes -27.7458
560
root 10.0808 16.3718 1.97015 -156.715 -0.952631 176.763
lowerback -18.6659 -0.186718 -7.03049
upperback 3.35642 1.57874 -1.66942
thorax 14.2562 0.187577 2.57726
lowerneck -4.50019 -1.24898 -0.660958
upperneck 23.0824 -4.00114 2.505
head 7.91233 -2.356 0.530736
rclavicle 5.46658e-015 1.35174e-014
rhumerus -30.8105 -7.15794 -84.5089
rradius 45.9154
rwrist -5.45136
rhand -7.54604 -52.7267
rfingers 7.12502
rthumb 18.3456 638.118
lclavicle 5.46658e-015 1.35174e-014
lhumerus -37.1189 7.24561 75.9417
lradius 29.5439
lwrist -2.82197
lhand -21.4036 -14.3669
lfingers 7.12502
lthumb 4.98466 15.5545
rfemur -18.9339 7.37928 20.2208
rtibia 13.4554
rfoot -22.4456 -6.29112
rtoes -30.6747
lfemur -78.9113 -3.78498 -21.3712
ltibia 68.5347
lfoot -9.05727 1.06073
ltoes -32.0094
